<?xml version="1.0" standalone="no"?>
<!DOCTYPE svg PUBLIC "-//W3C//DTD SVG 20010904//EN"
 "http://www.w3.org/TR/2001/REC-SVG-20010904/DTD/svg10.dtd">
<svg version="1.0" xmlns="http://www.w3.org/2000/svg"
 width="1024.000000pt" height="1024.000000pt" viewBox="0 0 1024.000000 1024.000000"
 preserveAspectRatio="xMidYMid meet">

<g transform="translate(0.000000,1024.000000) scale(0.100000,-0.100000)"
fill="#000000" stroke="none">
<path d="M5475 8946 c-12 -9 -15 -15 -7 -16 7 0 11 -3 9 -7 -4 -7 88 -8 131
-1 29 4 -14 27 -63 33 -37 5 -55 3 -70 -9z"/>
<path d="M5426 8903 c-3 -4 -6 -18 -6 -33 0 -14 -5 -31 -11 -37 -8 -8 -7 -17
5 -34 9 -13 16 -20 16 -16 0 5 12 0 28 -11 15 -11 45 -25 67 -31 59 -16 88
-39 80 -65 -3 -11 -8 -30 -10 -41 -4 -20 -4 -20 10 -1 8 11 15 33 15 49 0 16
4 26 10 22 6 -3 10 1 10 10 0 16 -5 19 -53 30 -23 5 -26 9 -17 19 9 11 3 15
-30 21 -46 8 -88 40 -93 70 -1 11 -6 26 -10 32 -6 9 -3 11 7 7 9 -3 16 -4 16
-1 0 8 -28 16 -34 10z m70 -141 c-4 -3 -14 2 -24 12 -16 18 -16 18 6 6 13 -6
21 -14 18 -18z"/>
<path d="M5610 8896 c0 -7 6 -19 14 -25 21 -17 30 4 10 23 -19 20 -24 20 -24
2z"/>
<path d="M5729 8838 c-7 -30 -6 -51 6 -93 8 -27 16 -71 17 -97 2 -28 8 -48 15
-48 8 0 9 -8 3 -27 -5 -16 -12 -41 -17 -58 -6 -23 -17 -32 -48 -40 -53 -16
-55 -31 -3 -33 39 -1 45 2 71 37 15 22 27 44 27 50 0 5 5 13 12 17 7 5 8 3 3
-6 -6 -9 -4 -11 4 -6 7 5 10 10 7 13 -2 3 9 27 25 55 16 27 26 54 23 60 -5 7
-1 9 9 5 13 -5 23 6 42 43 13 27 29 51 35 55 6 4 8 11 4 16 -3 5 -10 7 -15 4
-5 -4 -9 -1 -9 4 0 21 -21 11 -33 -16 -7 -16 -24 -46 -37 -68 -14 -22 -24 -43
-22 -47 1 -5 -2 -8 -7 -8 -5 0 -13 -9 -16 -20 -8 -26 -25 -26 -25 -1 0 11 -5
23 -10 26 -6 4 -8 11 -4 16 3 6 -2 17 -12 25 -11 9 -14 13 -9 11 6 -3 10 10
11 29 0 18 -2 31 -6 29 -4 -3 -7 12 -6 32 1 28 -3 38 -16 41 -10 2 -18 2 -19
0z m204 -86 c-10 -10 -20 -17 -22 -16 -6 5 20 34 30 34 5 0 1 -8 -8 -18z m-29
-66 c-3 -9 -10 -13 -16 -10 -5 3 -4 12 3 20 15 18 22 13 13 -10z"/>
<path d="M6035 8772 c-15 -10 -37 -90 -29 -104 4 -6 3 -8 -3 -5 -13 8 -36 -68
-28 -93 3 -10 1 -21 -5 -25 -16 -10 -12 -34 5 -31 24 3 30 15 59 108 26 84 28
88 60 94 49 9 68 2 85 -28 15 -25 13 -34 -16 -124 -18 -53 -30 -101 -27 -106
3 -5 15 -1 27 9 11 10 17 12 12 4 -5 -9 -4 -12 3 -7 12 7 28 72 24 94 -2 6 1
12 7 12 14 0 31 57 31 103 0 36 -2 38 -17 26 -11 -10 -14 -10 -9 -1 4 6 3 12
-2 12 -6 0 -9 8 -8 17 2 24 -67 40 -102 23 -19 -8 -28 -8 -30 -1 -2 6 -9 8
-15 4 -7 -4 -6 1 2 10 11 14 11 17 0 17 -8 0 -19 -4 -24 -8z"/>
<path d="M6326 8672 c-3 -6 -25 -59 -93 -228 -2 -7 6 -11 21 -11 27 0 36 14
85 129 14 33 27 49 44 53 44 11 81 2 95 -25 13 -23 12 -33 -21 -110 -46 -108
-46 -110 -19 -121 15 -6 21 -5 17 1 -3 6 -2 10 3 10 5 0 15 15 22 33 7 17 22
52 33 77 28 64 31 111 10 135 -30 33 -68 48 -106 41 -26 -5 -36 -3 -41 9 -6
16 -41 21 -50 7z"/>
<path d="M5430 8636 c0 -2 8 -10 18 -17 15 -13 16 -12 3 4 -13 16 -21 21 -21
13z"/>
<path d="M6639 8548 c-11 -37 -7 -40 34 -35 55 8 90 -17 90 -62 0 -17 -3 -34
-7 -38 -3 -4 -28 1 -54 10 -61 22 -142 23 -142 2 0 -8 -5 -14 -11 -12 -16 3
-32 -49 -25 -78 8 -32 78 -65 123 -58 28 4 31 3 27 -15 -4 -14 1 -21 17 -25
29 -8 35 -3 44 30 3 15 10 30 14 33 18 11 71 125 71 151 0 48 -72 96 -147 98
-18 1 -33 0 -34 -1z m70 -162 l33 -12 -27 -32 c-21 -25 -35 -32 -62 -32 -19 0
-43 5 -54 10 -21 12 -25 50 -7 68 15 15 73 14 117 -2z"/>
<path d="M6910 8428 c-16 -7 -20 -12 -12 -15 10 -4 8 -9 -7 -19 -17 -13 -41
-49 -140 -214 -31 -53 -34 -59 -27 -75 7 -20 36 -19 36 0 0 9 6 18 14 21 8 3
19 18 26 34 16 38 38 45 51 16 16 -33 61 -56 113 -56 37 0 52 6 81 31 70 62
86 144 40 205 -21 27 -34 34 -79 39 -38 5 -53 11 -50 20 7 18 -16 24 -46 13z
m128 -96 c31 -33 23 -85 -19 -127 -55 -56 -149 -30 -149 42 0 33 16 62 54 99
27 28 34 30 61 21 17 -5 40 -21 53 -35z"/>
<path d="M7183 8222 c-10 -11 -26 -22 -35 -25 -25 -9 -58 -80 -58 -126 0 -74
87 -142 160 -126 17 4 30 13 30 21 0 13 -11 17 -81 29 -28 4 -40 12 -49 35
-24 59 14 119 49 76 14 -16 125 -86 138 -86 14 0 43 67 43 99 0 34 -37 91 -70
108 -38 19 -106 16 -127 -5z m107 -37 c30 -16 45 -48 38 -82 -2 -10 -11 -16
-19 -14 -8 2 -25 4 -38 4 -16 -1 -20 2 -11 7 9 6 0 14 -29 30 -46 23 -48 38
-10 57 31 16 34 16 69 -2z"/>
<path d="M6157 6963 l-79 -46 49 -21 c26 -11 50 -24 51 -28 2 -5 9 -5 15 -1
12 7 16 8 48 11 8 1 25 22 37 47 12 25 27 45 33 45 7 0 4 8 -6 20 -27 30 -62
24 -148 -27z"/>
<path d="M6356 6934 c-9 -8 -16 -21 -16 -28 0 -8 -7 -19 -15 -26 -20 -16 -3
-29 31 -25 15 1 24 -3 24 -11 0 -8 5 -14 10 -14 7 0 7 6 0 19 -16 30 -12 68 7
75 15 6 15 8 3 16 -21 13 -26 12 -44 -6z"/>
<path d="M6061 6569 c0 -182 5 -342 10 -356 10 -28 33 -21 24 8 -5 14 -2 17 8
13 8 -3 17 1 20 9 4 10 -2 13 -20 11 -22 -2 -24 9 -2 12 5 1 12 2 15 3 4 0 -1
12 -10 26 -21 32 -24 211 -5 229 9 8 10 7 4 -4 -8 -13 -7 -13 11 0 39 31 42
41 21 83 -21 45 -24 94 -8 154 11 41 43 83 64 83 15 1 -103 59 -121 60 -10 0
-12 -71 -11 -331z"/>
<path d="M6446 6892 c-3 -5 21 -17 52 -27 47 -14 53 -19 37 -26 -17 -6 -15 -8
11 -8 17 -1 43 -10 57 -21 14 -11 33 -20 44 -20 17 1 17 1 -1 11 -15 9 -16 13
-5 21 10 6 7 8 -11 6 -17 -2 -24 1 -22 10 1 8 -2 11 -7 8 -5 -3 -12 1 -15 10
-4 10 -13 13 -25 9 -26 -8 -57 5 -39 16 8 6 0 6 -19 3 -22 -4 -33 -3 -33 5 0
13 -16 15 -24 3z m134 -42 c0 -5 -4 -10 -10 -10 -5 0 -10 5 -10 10 0 6 5 10
10 10 6 0 10 -4 10 -10z"/>
<path d="M6430 6822 c6 -12 8 -26 6 -31 -8 -13 20 -21 31 -10 5 5 17 7 27 3
13 -5 14 -9 5 -20 -9 -11 -8 -14 4 -14 8 0 20 -6 26 -14 6 -8 24 -16 39 -18
15 -3 34 -7 42 -10 8 -3 12 -3 8 -1 -4 2 -4 11 -1 19 4 10 0 12 -13 7 -13 -5
-15 -3 -9 8 4 8 4 11 0 6 -5 -4 -16 0 -26 9 -10 9 -25 14 -34 11 -8 -4 -15 -2
-15 2 0 5 6 11 13 14 6 3 3 5 -8 5 -43 1 -61 8 -83 32 -23 24 -23 24 -12 2z"/>
<path d="M6463 6737 c0 -7 14 -12 35 -13 26 -1 30 1 17 9 -9 5 -19 6 -22 3 -4
-3 -11 -1 -18 4 -8 7 -12 6 -12 -3z"/>
<path d="M4783 6715 c0 -8 4 -12 9 -9 5 3 6 10 3 15 -9 13 -12 11 -12 -6z"/>
<path d="M6497 6693 c3 -8 20 -21 37 -29 23 -11 27 -12 14 -1 -10 8 -15 17
-11 21 4 4 0 4 -10 0 -9 -3 -17 -2 -17 4 0 6 6 12 13 15 6 3 2 4 -9 4 -14 -1
-20 -6 -17 -14z"/>
<path d="M4755 6690 c8 -13 75 -41 84 -36 4 3 16 -3 26 -14 10 -11 14 -20 10
-20 -4 0 2 -9 15 -20 12 -11 27 -17 31 -14 10 6 61 -31 53 -38 -3 -3 7 -9 23
-12 22 -6 24 -9 12 -18 -10 -7 -8 -8 11 -4 22 4 23 4 8 -8 -10 -7 -18 -16 -18
-20 0 -9 34 10 54 29 14 14 13 18 -5 36 -17 17 -18 23 -7 37 11 13 11 15 -3
10 -11 -4 -24 4 -38 23 -12 16 -29 29 -37 29 -18 0 -46 25 -37 34 4 3 2 6 -3
7 -5 0 -19 2 -31 3 -12 1 -22 0 -21 -3 2 -20 -4 -22 -17 -5 -8 10 -15 14 -15
8 0 -12 -30 -15 -30 -3 0 4 -16 7 -35 7 -19 0 -33 -4 -30 -8z m202 -85 c0 -17
-13 -20 -21 -6 -4 5 0 12 6 14 7 3 13 6 14 6 0 1 1 -6 1 -14z m69 -63 c-10 -2
-22 0 -28 6 -6 6 0 7 19 4 21 -5 23 -7 9 -10z"/>
<path d="M6460 6640 c0 -58 -67 -125 -133 -135 -54 -8 -62 -13 -81 -49 -18
-36 -14 -120 8 -145 9 -9 16 -22 16 -27 0 -18 81 -2 138 28 31 17 75 40 97 51
22 11 66 37 98 58 32 22 69 42 83 45 27 7 44 31 37 52 -3 7 -30 26 -61 41 -32
16 -84 45 -116 65 -68 41 -86 44 -86 16z"/>
<path d="M5508 6594 c-5 -4 -7 -100 -7 -213 1 -121 4 -186 9 -157 3 28 12 52
19 54 8 3 20 12 28 21 7 9 30 33 49 54 28 31 33 41 23 53 -6 8 -8 14 -5 14 4
0 2 9 -4 20 -6 11 -17 17 -24 14 -10 -4 -22 8 -35 33 -11 21 -20 31 -21 24 -1
-33 -19 6 -22 47 -2 24 -6 40 -10 36z"/>
<path d="M5055 6570 c3 -5 11 -10 16 -10 6 0 7 5 4 10 -3 6 -11 10 -16 10 -6
0 -7 -4 -4 -10z"/>
<path d="M3485 6467 c-4 -14 -3 -36 1 -49 9 -25 11 -33 13 -48 0 -5 25 -22 54
-36 28 -15 63 -34 77 -44 14 -10 79 -45 145 -79 66 -33 136 -69 155 -80 134
-75 246 -133 262 -136 16 -3 18 3 18 53 -1 80 0 79 -195 182 -189 100 -240
127 -279 149 -79 45 -192 100 -218 106 -23 6 -28 3 -33 -18z"/>
<path d="M3712 6435 c9 -10 21 -16 28 -13 7 2 -1 10 -16 17 -27 12 -28 11 -12
-4z"/>
<path d="M9105 6440 c-3 -5 3 -10 14 -10 12 0 21 5 21 10 0 6 -6 10 -14 10 -8
0 -18 -4 -21 -10z"/>
<path d="M3790 6394 c0 -9 41 -44 53 -44 14 0 80 -33 95 -47 7 -7 19 -13 26
-13 8 0 19 -6 25 -14 6 -7 25 -16 42 -20 17 -3 28 -10 24 -16 -3 -6 0 -7 9 -4
9 3 16 2 16 -4 0 -5 11 -13 24 -16 14 -3 31 -12 38 -19 18 -17 69 -39 76 -33
3 3 -4 9 -14 13 -10 4 -59 30 -109 58 -49 27 -112 61 -140 75 -27 14 -52 27
-55 30 -12 12 -110 61 -110 54z"/>
<path d="M9076 6371 c-9 -14 24 -88 42 -95 7 -4 12 3 11 17 -2 35 -13 68 -23
67 -5 -1 -12 4 -16 10 -6 9 -9 9 -14 1z"/>
<path d="M6286 6253 c-6 -14 -5 -15 5 -6 7 7 10 15 7 18 -3 3 -9 -2 -12 -12z"/>
<path d="M4240 6061 c0 -39 5 -73 10 -76 6 -4 10 18 10 59 0 40 4 66 11 66 5
0 7 5 4 10 -3 6 -13 10 -21 10 -11 0 -14 -16 -14 -69z"/>
<path d="M9168 5983 c7 -3 16 -2 19 1 4 3 -2 6 -13 5 -11 0 -14 -3 -6 -6z"/>
<path d="M4180 5893 c0 -25 2 -44 4 -42 8 10 13 89 5 89 -5 0 -9 -21 -9 -47z"/>
<path d="M5470 5800 c14 -11 31 -20 38 -20 6 0 12 -4 12 -9 0 -5 22 -22 50
-38 52 -30 134 -128 123 -146 -3 -6 -1 -7 5 -3 7 4 12 1 12 -7 0 -8 7 -27 15
-43 8 -16 12 -40 9 -54 -4 -24 -4 -24 5 -2 14 30 23 28 15 -4 -5 -18 -3 -25 3
-21 16 10 23 -27 24 -123 0 -47 4 -96 9 -110 4 -14 6 33 5 105 -2 148 -19 207
-85 305 -66 97 -105 130 -155 130 -21 0 -26 3 -16 9 11 7 9 10 -8 16 -16 5
-19 10 -12 19 8 10 1 13 -32 14 l-42 2 25 -20z"/>
<path d="M5123 5719 c-37 -6 -77 -19 -99 -34 -20 -14 -33 -25 -28 -26 5 0 29
-2 54 -4 45 -2 90 -22 90 -38 0 -4 -11 -20 -25 -35 -14 -15 -53 -66 -86 -114
-33 -49 -62 -88 -64 -88 -24 0 -105 24 -105 31 0 5 -9 9 -21 9 -11 0 -18 -4
-14 -9 3 -5 1 -12 -5 -16 -6 -4 -8 -11 -5 -16 4 -5 2 -9 -3 -9 -6 0 -9 -29 -7
-67 2 -71 44 -181 68 -184 27 -4 82 3 87 9 3 4 37 24 75 43 39 20 91 47 118
62 26 14 47 22 47 19 0 -4 4 -2 8 3 8 13 67 37 142 59 30 9 66 25 79 36 21 18
23 26 17 75 l-6 54 35 16 c19 9 43 32 54 50 18 32 19 34 2 49 -10 9 -21 13
-25 9 -4 -4 -4 0 -1 9 5 13 -6 25 -42 47 -89 57 -216 79 -340 60z"/>
<path d="M8260 5704 c0 -10 6 -14 15 -11 8 4 17 1 21 -5 4 -6 3 -8 -4 -4 -6 3
-14 1 -17 -5 -5 -7 0 -10 11 -7 11 2 20 13 22 26 3 18 -1 22 -22 22 -17 0 -26
-5 -26 -16z"/>
<path d="M3259 5615 c-1 -27 -2 -72 -2 -100 2 -146 2 -144 32 -176 17 -17 35
-28 40 -24 7 4 11 68 11 178 0 102 -4 166 -9 158 -12 -19 -54 -20 -63 -1 -4 8
-8 -7 -9 -35z"/>
<path d="M4935 5616 c-23 -25 -26 -40 -4 -19 12 12 21 24 18 27 -2 2 -9 -1
-14 -8z"/>
<path d="M3366 5582 c-7 -11 -7 -287 0 -305 8 -22 33 -21 64 3 24 18 25 23 28
159 3 112 1 141 -10 142 -7 1 -27 3 -45 5 -18 2 -34 0 -37 -4z"/>
<path d="M8530 5540 c0 -5 5 -10 10 -10 6 0 10 5 10 10 0 6 -4 10 -10 10 -5 0
-10 -4 -10 -10z"/>
<path d="M5753 5385 c0 -22 2 -30 4 -17 2 12 2 30 0 40 -3 9 -5 -1 -4 -23z"/>
<path d="M6860 5370 c0 -46 -4 -69 -11 -64 -4 2 -9 1 -12 -3 -2 -5 -2 -2 0 5
1 7 -2 10 -7 7 -6 -3 -10 -13 -10 -21 0 -8 -5 -14 -10 -14 -26 0 -35 -24 -32
-86 3 -51 7 -64 22 -69 11 -3 20 -18 22 -33 4 -24 5 -25 13 -8 5 11 4 26 -4
37 -7 12 -7 19 -1 19 5 0 10 -4 10 -10 0 -5 5 -10 11 -10 6 0 8 7 5 15 -3 9 1
35 9 58 17 48 20 164 5 187 -8 12 -10 10 -10 -10z"/>
<path d="M6761 5224 c0 -11 3 -14 6 -6 3 7 2 16 -1 19 -3 4 -6 -2 -5 -13z"/>
<path d="M6786 5104 c-9 -22 -8 -24 9 -24 8 0 15 6 15 14 0 22 -17 28 -24 10z"/>
<path d="M4729 5025 c17 -33 31 -51 31 -40 0 6 -10 21 -21 35 -13 17 -17 18
-10 5z"/>
<path d="M3403 5003 c-16 -6 -18 -248 -3 -258 5 -3 7 -12 3 -20 -3 -10 1 -15
15 -15 28 0 32 17 32 145 0 93 -3 116 -17 133 -10 11 -24 18 -30 15z"/>
<path d="M4131 4546 c-14 -17 -18 -83 -5 -96 19 -18 122 -69 128 -63 8 9 7
126 -2 138 -22 31 -101 45 -121 21z"/>
<path d="M3766 4502 c-74 -46 -91 -82 -55 -117 20 -20 104 -70 259 -157 19
-11 40 -24 45 -28 6 -4 46 -26 89 -49 89 -47 98 -45 102 21 1 24 5 71 7 105
l6 63 -70 40 c-105 62 -297 160 -312 159 -6 0 -39 -17 -71 -37z"/>
<path d="M1870 4455 c0 -7 30 -13 34 -7 3 4 -4 9 -15 9 -10 1 -19 0 -19 -2z"/>
<path d="M3290 4391 c0 -6 -9 -8 -20 -6 -16 3 -20 -2 -20 -25 0 -32 17 -32 58
-2 22 17 22 17 2 30 -11 7 -20 8 -20 3z"/>
<path d="M3643 4343 c-7 -2 -13 -11 -13 -19 0 -10 -7 -13 -25 -8 -15 4 -25 2
-25 -5 0 -6 5 -11 12 -11 13 0 141 -70 136 -75 -5 -5 -122 35 -132 46 -13 12
-29 12 -21 -1 3 -6 -1 -7 -9 -4 -13 5 -16 -3 -16 -45 0 -62 15 -80 113 -137
52 -30 67 -43 67 -61 0 -13 5 -23 11 -23 10 0 134 -71 156 -90 7 -5 15 -10 19
-10 4 0 43 -21 88 -47 155 -89 189 -105 198 -91 8 14 13 103 9 178 -1 25 3 58
9 75 6 16 8 26 4 23 -3 -4 -14 1 -23 12 -23 27 -325 193 -329 180 -2 -5 -10
-10 -19 -10 -9 0 -12 6 -9 18 4 11 -1 21 -12 27 -27 14 -174 85 -176 84 0 0
-7 -3 -13 -6z m14 -49 c-3 -3 -12 -4 -19 -1 -8 3 -5 6 6 6 11 1 17 -2 13 -5z"/>
<path d="M4860 4013 c0 -91 3 -95 55 -67 17 9 47 25 68 36 45 23 47 37 4 63
-121 74 -127 72 -127 -32z"/>
<path d="M4585 3990 c-3 -5 -1 -10 4 -10 6 0 11 5 11 10 0 6 -2 10 -4 10 -3 0
-8 -4 -11 -10z"/>
<path d="M4955 3925 c-22 -13 -54 -30 -71 -38 -32 -15 -32 -15 -30 -88 l2 -73
37 -16 c20 -9 35 -19 32 -21 -2 -3 4 -5 15 -5 10 0 16 4 14 8 -3 4 -2 8 3 8 4
0 17 12 27 27 13 17 14 24 5 19 -9 -5 -8 -3 2 6 22 18 31 58 13 58 -11 0 -13
10 -8 43 3 23 10 52 16 64 9 19 14 21 27 11 13 -10 14 -10 4 2 -20 21 -44 20
-88 -5z"/>
<path d="M4382 3754 c-17 -36 -15 -90 5 -109 9 -10 29 -22 45 -27 15 -6 26
-14 23 -19 -3 -4 12 -13 33 -19 22 -5 50 -18 63 -28 20 -15 80 -44 99 -48 3 0
18 -6 34 -13 51 -21 61 -13 64 57 2 49 -1 66 -15 81 -28 29 -253 139 -299 145
-37 5 -42 3 -52 -20z"/>
<path d="M6462 3518 c-15 -15 -15 -28 -1 -28 5 0 8 4 5 9 -4 5 0 11 6 14 7 2
10 7 7 10 -3 4 -11 1 -17 -5z"/>
<path d="M7897 3353 c-4 -3 -7 -13 -7 -21 0 -18 13 -7 16 13 2 17 1 18 -9 8z"/>
<path d="M7920 3351 c0 -8 50 -22 74 -20 14 1 -44 28 -61 29 -7 0 -13 -4 -13
-9z"/>
<path d="M8020 3293 c0 -5 5 -15 10 -23 8 -12 10 -11 10 8 0 12 -4 22 -10 22
-5 0 -10 -3 -10 -7z"/>
<path d="M7853 3253 c1 -32 27 -49 27 -18 0 8 -4 15 -9 15 -5 0 -12 8 -14 18
-3 9 -5 2 -4 -15z"/>
<path d="M7989 3204 c-10 -12 -24 -15 -59 -10 -43 5 -44 5 -20 -9 38 -22 74
-18 100 10 18 19 20 25 8 25 -9 0 -22 -7 -29 -16z"/>
<path d="M5227 2994 c-3 -4 -2 -15 3 -25 7 -12 7 -20 0 -24 -34 -21 14 -99 68
-111 15 -4 45 -16 67 -29 32 -17 154 -60 233 -81 7 -2 11 -8 8 -13 -3 -5 2 -7
11 -5 10 3 61 -4 113 -16 52 -11 131 -22 175 -25 44 -3 90 -8 103 -11 l23 -5
-2 -372 c-1 -205 -6 -379 -10 -387 -4 -8 -18 -62 -30 -120 -12 -58 -28 -123
-35 -144 -8 -22 -12 -41 -10 -43 2 -3 -20 -51 -49 -108 -29 -57 -51 -106 -49
-109 2 -3 1 -4 -3 -1 -3 3 -27 -26 -52 -63 -44 -65 -123 -144 -221 -223 -69
-55 -210 -150 -229 -154 -22 -4 -102 -45 -123 -62 -12 -11 -21 -12 -37 -4 -17
10 -20 9 -15 -4 3 -8 10 -12 15 -9 5 3 9 -14 10 -38 1 -24 4 -53 7 -65 7 -22
8 -22 88 16 77 37 223 118 234 131 3 4 28 22 55 40 75 51 244 225 300 310 28
41 63 102 79 135 16 33 33 67 37 75 25 44 41 89 44 125 2 22 8 41 13 43 6 2 7
12 4 24 -3 14 -1 19 6 14 8 -5 10 -2 6 9 -4 8 -1 21 5 28 11 14 22 127 26 257
1 41 3 89 5 105 3 28 3 27 10 -10 l7 -40 2 48 c0 27 -3 46 -8 43 -4 -3 -4 16
1 42 5 26 9 137 9 247 0 110 -1 241 -1 290 l0 91 -132 12 c-164 15 -364 58
-478 103 -30 11 -77 30 -105 41 -27 10 -71 30 -96 44 -29 14 -54 21 -65 17
-12 -4 -15 -3 -10 5 8 13 3 16 -7 6z"/>
<path d="M2930 2969 c0 -5 5 -7 10 -4 6 3 10 8 10 11 0 2 -4 4 -10 4 -5 0 -10
-5 -10 -11z"/>
<path d="M4888 2513 c83 -2 221 -2 305 0 83 1 15 3 -153 3 -168 0 -236 -2
-152 -3z"/>
<path d="M5010 2491 l35 -8 -31 -2 c-28 -1 -30 -3 -26 -31 3 -18 12 -32 24
-36 17 -5 19 -12 14 -43 -3 -20 -6 -44 -6 -53 0 -26 -20 -22 -21 5 l0 22 -11
-23 c-9 -18 -8 -29 6 -53 9 -16 13 -29 7 -29 -10 0 2 -28 29 -66 14 -20 27
-21 225 -28 116 -4 232 -9 258 -13 45 -5 48 -8 45 -32 l-3 -26 -358 -3 c-310
-2 -362 0 -388 14 -17 8 -33 13 -37 10 -3 -3 -11 -1 -18 5 -9 7 -15 -1 -22
-36 -12 -57 2 -117 26 -107 12 4 14 1 9 -13 -4 -9 -2 -24 4 -31 7 -9 8 -14 1
-14 -5 0 -8 -9 -5 -21 4 -15 11 -19 25 -15 11 2 17 2 14 -1 -3 -3 2 -13 11
-22 16 -15 15 -16 -14 -19 -34 -3 -47 -27 -31 -56 6 -10 7 -33 2 -54 -4 -20
-6 -55 -5 -77 2 -22 1 -38 -2 -35 -5 5 -14 70 -16 112 -1 12 -6 15 -17 11 -13
-5 -13 -8 -2 -15 10 -7 10 -11 1 -15 -16 -6 -17 -45 -1 -61 9 -9 9 -17 0 -34
-18 -33 -19 -132 -3 -152 12 -14 61 -16 477 -16 l464 0 15 36 c13 31 15 102
15 435 0 281 -3 406 -12 424 l-11 25 -149 0 -148 0 0 60 c0 33 -4 60 -10 60
-5 0 -9 5 -7 12 1 8 -24 13 -80 15 -46 2 -83 0 -83 -5 0 -5 -17 -8 -37 -6
-116 10 -186 12 -153 5z m536 -495 c15 -12 17 -18 8 -33 -10 -17 -36 -18 -383
-20 -297 -1 -370 1 -362 11 6 7 9 15 6 18 -3 3 1 11 9 17 13 11 15 9 11 -8 -2
-12 0 -19 6 -16 5 4 9 12 9 20 0 7 8 16 18 18 9 3 161 5 338 6 264 1 324 -2
340 -13z m-686 -66 c0 -5 -2 -10 -4 -10 -3 0 -8 5 -11 10 -3 6 -1 10 4 10 6 0
11 -4 11 -10z m692 -68 c9 -9 10 -17 2 -30 -10 -15 -42 -17 -359 -19 -191 -1
-350 -5 -354 -9 -3 -4 -1 -4 6 0 6 3 14 2 17 -3 7 -10 -52 -7 -62 4 -4 5 1 6
10 2 19 -7 30 14 17 34 -26 41 -25 41 351 37 274 -2 362 -6 372 -16z m-709
-89 c3 -5 -5 -8 -18 -8 -13 0 -21 3 -18 8 2 4 10 7 18 7 8 0 16 -3 18 -7z
m525 -31 c6 -5 1 -41 -6 -46 -4 -2 -118 -6 -252 -7 -135 -2 -234 -6 -220 -10
25 -7 23 -8 -39 -14 -19 -2 -38 -10 -42 -17 -5 -8 -8 10 -6 42 l2 56 33 -3
c18 -1 31 1 28 5 -3 6 493 0 502 -6z m-513 -103 c-10 -15 -25 -10 -19 6 4 8
10 12 15 9 5 -3 7 -10 4 -15z m132 -5 c-3 -3 -12 -4 -19 -1 -8 3 -5 6 6 6 11
1 17 -2 13 -5z m700 -46 c-2 -13 -4 -5 -4 17 -1 22 1 32 4 23 2 -10 2 -28 0
-40z m-651 32 c121 0 144 -2 144 -15 0 -12 -16 -15 -81 -15 -51 0 -78 -4 -74
-10 3 -5 -1 -10 -9 -10 -9 0 -16 5 -16 10 0 6 -12 10 -27 10 -22 0 -25 -2 -13
-10 11 -7 5 -10 -25 -10 -22 0 -51 -3 -65 -6 -22 -4 -22 -3 5 10 17 9 21 14
10 11 -11 -2 -27 0 -35 5 -9 6 -20 5 -30 -3 -13 -11 -13 -10 -1 5 7 10 17 15
22 12 5 -3 12 2 15 11 4 9 13 14 21 11 8 -3 80 -6 159 -6z m-178 -177 c-10 -2
-28 -2 -40 0 -13 2 -5 4 17 4 22 1 32 -1 23 -4z"/>
<path d="M4836 1855 c4 -8 8 -15 10 -15 2 0 4 7 4 15 0 8 -4 15 -10 15 -5 0
-7 -7 -4 -15z"/>
<path d="M4814 1716 c1 -8 5 -18 8 -22 4 -3 5 1 4 10 -1 8 -5 18 -8 22 -4 3
-5 -1 -4 -10z"/>
<path d="M4906 2288 c-4 -10 -16 -20 -27 -23 -25 -8 -25 -29 1 -22 17 4 18 2
9 -14 -5 -10 -17 -19 -26 -19 -9 0 -14 -3 -11 -6 4 -3 2 -19 -2 -35 -5 -18 -5
-27 1 -24 5 4 9 1 9 -4 0 -6 5 -11 11 -11 5 0 7 5 4 10 -4 6 7 10 27 10 45 0
60 12 51 38 -4 11 -12 21 -18 21 -5 0 -11 5 -13 13 -3 10 -1 10 6 -1 8 -11 12
-10 21 7 18 33 14 55 -8 49 -13 -3 -21 1 -24 12 -4 15 -5 14 -11 -1z"/>
<path d="M4803 2114 c0 -7 6 -15 12 -18 6 -2 12 2 12 10 0 7 -6 15 -12 18 -6
2 -12 -2 -12 -10z"/>
<path d="M4728 1798 c-5 -27 0 -48 11 -48 8 0 6 58 -2 66 -2 3 -7 -6 -9 -18z"/>
<path d="M4930 996 c0 -2 8 -10 18 -17 15 -13 16 -12 3 4 -13 16 -21 21 -21
13z"/>
<path d="M5020 937 c25 -24 130 -79 124 -65 -3 7 -35 28 -72 46 -37 19 -60 27
-52 19z"/>
</g>
</svg>
